<svg xmlns="http://www.w3.org/2000/svg" xmlns:xlink="http://www.w3.org/1999/xlink" width="500" zoomAndPan="magnify" viewBox="0 0 375 374.999991" height="500" preserveAspectRatio="xMidYMid meet" version="1.0"><defs><g/><clipPath id="0019365d56"><path d="M 101.582031 79.390625 L 256.832031 79.390625 L 256.832031 234.640625 L 101.582031 234.640625 Z M 101.582031 79.390625 " clip-rule="nonzero"/></clipPath><clipPath id="078026afb7"><path d="M 179.316406 79.390625 C 136.386719 79.390625 101.582031 114.195312 101.582031 157.128906 C 101.582031 200.0625 136.386719 234.863281 179.316406 234.863281 C 222.25 234.863281 257.054688 200.0625 257.054688 157.128906 C 257.054688 114.195312 222.25 79.390625 179.316406 79.390625 Z M 179.316406 79.390625 " clip-rule="nonzero"/></clipPath><clipPath id="7797e4dbe8"><path d="M 323 153 L 324 153 L 324 154 L 323 154 Z M 323 153 " clip-rule="nonzero"/></clipPath><clipPath id="d6afb7651e"><path d="M 121.699219 9.75 L 355.902344 54.820312 L 317.351562 255.144531 L 83.148438 210.074219 Z M 121.699219 9.75 " clip-rule="nonzero"/></clipPath><clipPath id="fad3a108d1"><path d="M 121.699219 9.75 L 355.902344 54.820312 L 317.351562 255.144531 L 83.148438 210.074219 Z M 121.699219 9.75 " clip-rule="nonzero"/></clipPath><clipPath id="25803f8faf"><path d="M 83 38 L 356 38 L 356 211 L 83 211 Z M 83 38 " clip-rule="nonzero"/></clipPath><clipPath id="333e118919"><path d="M 121.699219 9.75 L 355.902344 54.820312 L 317.351562 255.144531 L 83.148438 210.074219 Z M 121.699219 9.75 " clip-rule="nonzero"/></clipPath><clipPath id="d9f3196669"><path d="M 121.699219 9.75 L 355.902344 54.820312 L 317.351562 255.144531 L 83.148438 210.074219 Z M 121.699219 9.75 " clip-rule="nonzero"/></clipPath><clipPath id="0d3605295e"><path d="M 121.695312 9.769531 L 356.085938 54.878906 L 317.519531 255.28125 L 83.128906 210.175781 Z M 121.695312 9.769531 " clip-rule="nonzero"/></clipPath><clipPath id="3f8ea38e44"><path d="M 49 208 L 86 208 L 86 237 L 49 237 Z M 49 208 " clip-rule="nonzero"/></clipPath><clipPath id="85baa27bbe"><path d="M 58.304688 241.757812 L 44.015625 217.96875 L 78.734375 197.117188 L 93.023438 220.902344 Z M 58.304688 241.757812 " clip-rule="nonzero"/></clipPath><clipPath id="52b5d269a9"><path d="M 58.304688 241.757812 L 44.015625 217.96875 L 78.734375 197.117188 L 93.023438 220.902344 Z M 58.304688 241.757812 " clip-rule="nonzero"/></clipPath><clipPath id="feb5673de9"><path d="M 117.199219 95.007812 L 241.699219 95.007812 L 241.699219 219.507812 L 117.199219 219.507812 Z M 117.199219 95.007812 " clip-rule="nonzero"/></clipPath><clipPath id="0c3cfd160f"><path d="M 163 98 L 241.699219 98 L 241.699219 173 L 163 173 Z M 163 98 " clip-rule="nonzero"/></clipPath><clipPath id="48286bedd8"><path d="M 142 95.007812 L 171 95.007812 L 171 115 L 142 115 Z M 142 95.007812 " clip-rule="nonzero"/></clipPath><clipPath id="a6e4532b91"><path d="M 117.199219 116 L 134 116 L 134 153 L 117.199219 153 Z M 117.199219 116 " clip-rule="nonzero"/></clipPath></defs><g clip-path="url(#0019365d56)"><g clip-path="url(#078026afb7)"><path fill="#fffdfd" d="M 169.03125 81.582031 C 166.109375 81.972656 163.222656 82.535156 160.371094 83.265625 L 159.628906 80.359375 C 162.589844 79.601562 165.589844 79.015625 168.628906 78.605469 Z M 158.949219 83.644531 C 156.113281 84.425781 153.332031 85.375 150.605469 86.484375 L 149.472656 83.707031 C 152.308594 82.550781 155.203125 81.566406 158.152344 80.75 Z M 149.25 87.050781 C 146.542969 88.214844 143.914062 89.53125 141.355469 91 L 139.859375 88.402344 C 142.515625 86.871094 145.253906 85.503906 148.066406 84.292969 Z M 140.085938 91.746094 C 137.5625 93.265625 135.128906 94.925781 132.792969 96.730469 L 130.960938 94.355469 C 133.390625 92.480469 135.917969 90.753906 138.539062 89.175781 Z M 131.636719 97.640625 C 129.335938 99.484375 127.152344 101.457031 125.078125 103.554688 L 122.945312 101.445312 C 125.097656 99.265625 127.371094 97.21875 129.757812 95.300781 Z M 124.054688 104.613281 C 122.023438 106.75 120.121094 108.996094 118.347656 111.351562 L 115.953125 109.550781 C 117.792969 107.101562 119.769531 104.765625 121.882812 102.542969 Z M 117.472656 112.539062 C 115.746094 114.933594 114.164062 117.414062 112.726562 119.984375 L 110.109375 118.523438 C 111.601562 115.847656 113.246094 113.269531 115.042969 110.785156 Z M 112.019531 121.277344 C 110.632812 123.875 109.402344 126.546875 108.328125 129.285156 L 105.535156 128.1875 C 106.652344 125.339844 107.929688 122.566406 109.375 119.863281 Z M 107.800781 130.65625 C 106.78125 133.417969 105.921875 136.230469 105.226562 139.09375 L 102.3125 138.386719 C 103.035156 135.410156 103.925781 132.488281 104.988281 129.617188 Z M 104.894531 140.53125 C 104.253906 143.40625 103.785156 146.3125 103.484375 149.25 L 100.5 148.945312 C 100.8125 145.890625 101.300781 142.867188 101.964844 139.882812 Z M 103.347656 150.703125 C 103.171875 152.835938 103.082031 154.976562 103.082031 157.128906 C 103.082031 157.941406 103.09375 158.75 103.121094 159.558594 L 100.121094 159.652344 C 100.09375 158.8125 100.082031 157.972656 100.082031 157.128906 C 100.082031 154.894531 100.175781 152.667969 100.359375 150.453125 Z M 103.179688 161.03125 C 103.328125 163.980469 103.644531 166.902344 104.128906 169.800781 L 101.171875 170.296875 C 100.667969 167.285156 100.339844 164.246094 100.183594 161.183594 Z M 104.386719 171.242188 C 104.925781 174.140625 105.636719 176.992188 106.507812 179.800781 L 103.644531 180.691406 C 102.734375 177.769531 102 174.804688 101.4375 171.796875 Z M 106.960938 181.207031 C 107.890625 184 108.980469 186.730469 110.230469 189.402344 L 107.511719 190.671875 C 106.214844 187.898438 105.082031 185.058594 104.113281 182.152344 Z M 110.867188 190.730469 C 112.164062 193.371094 113.613281 195.929688 115.210938 198.40625 L 112.691406 200.03125 C 111.03125 197.457031 109.523438 194.796875 108.175781 192.054688 Z M 116.019531 199.632812 C 117.667969 202.078125 119.449219 204.425781 121.371094 206.667969 L 119.089844 208.621094 C 117.097656 206.289062 115.242188 203.851562 113.53125 201.308594 Z M 122.339844 207.777344 C 124.296875 209.980469 126.375 212.0625 128.574219 214.027344 L 126.578125 216.265625 C 124.292969 214.226562 122.132812 212.0625 120.097656 209.773438 Z M 129.683594 214.996094 C 131.925781 216.917969 134.269531 218.707031 136.710938 220.359375 L 135.035156 222.84375 C 132.492188 221.128906 130.058594 219.269531 127.730469 217.273438 Z M 137.9375 221.167969 C 140.414062 222.769531 142.96875 224.222656 145.609375 225.527344 L 144.277344 228.214844 C 141.535156 226.863281 138.878906 225.351562 136.308594 223.6875 Z M 146.933594 226.164062 C 149.601562 227.417969 152.332031 228.511719 155.125 229.445312 L 154.171875 232.292969 C 151.269531 231.320312 148.429688 230.183594 145.65625 228.878906 Z M 156.527344 229.902344 C 159.335938 230.78125 162.1875 231.492188 165.082031 232.039062 L 164.527344 234.984375 C 161.515625 234.417969 158.554688 233.675781 155.632812 232.765625 Z M 166.523438 232.296875 C 169.421875 232.785156 172.34375 233.105469 175.292969 233.261719 L 175.136719 236.257812 C 172.070312 236.097656 169.035156 235.761719 166.023438 235.253906 Z M 176.765625 233.324219 C 177.613281 233.351562 178.464844 233.363281 179.316406 233.363281 C 181.429688 233.363281 183.527344 233.28125 185.621094 233.109375 L 185.867188 236.097656 C 183.691406 236.277344 181.507812 236.363281 179.316406 236.363281 C 178.433594 236.363281 177.546875 236.351562 176.664062 236.320312 Z M 187.074219 232.976562 C 190.011719 232.679688 192.917969 232.214844 195.792969 231.582031 L 196.441406 234.511719 C 193.453125 235.167969 190.429688 235.652344 187.375 235.960938 Z M 197.234375 231.25 C 200.097656 230.558594 202.910156 229.703125 205.675781 228.6875 L 206.710938 231.5 C 203.835938 232.558594 200.914062 233.449219 197.933594 234.164062 Z M 207.046875 228.164062 C 209.789062 227.09375 212.460938 225.867188 215.0625 224.484375 L 216.46875 227.132812 C 213.765625 228.570312 210.988281 229.847656 208.140625 230.960938 Z M 216.355469 223.78125 C 218.925781 222.347656 221.410156 220.769531 223.804688 219.046875 L 225.558594 221.480469 C 223.070312 223.273438 220.488281 224.914062 217.8125 226.402344 Z M 224.996094 218.171875 C 227.355469 216.402344 229.605469 214.503906 231.746094 212.476562 L 233.808594 214.652344 C 231.582031 216.761719 229.246094 218.734375 226.792969 220.574219 Z M 232.804688 211.453125 C 234.90625 209.386719 236.878906 207.203125 238.726562 204.90625 L 241.066406 206.789062 C 239.144531 209.175781 237.09375 211.441406 234.910156 213.589844 Z M 239.640625 203.75 C 241.449219 201.417969 243.113281 198.988281 244.636719 196.464844 L 247.203125 198.015625 C 245.621094 200.636719 243.890625 203.160156 242.015625 205.585938 Z M 245.382812 195.199219 C 246.859375 192.644531 248.179688 190.015625 249.347656 187.3125 L 252.101562 188.5 C 250.886719 191.308594 249.515625 194.042969 247.980469 196.699219 Z M 249.917969 185.957031 C 251.03125 183.230469 251.980469 180.449219 252.769531 177.613281 L 255.660156 178.417969 C 254.839844 181.367188 253.851562 184.257812 252.691406 187.089844 Z M 253.152344 176.195312 C 253.886719 173.347656 254.449219 170.460938 254.851562 167.539062 L 257.824219 167.945312 C 257.40625 170.980469 256.820312 173.980469 256.054688 176.941406 Z M 255.035156 166.070312 C 255.375 163.152344 255.550781 160.210938 255.554688 157.253906 L 258.554688 157.257812 C 258.550781 160.332031 258.371094 163.386719 258.015625 166.421875 Z M 255.542969 155.765625 C 255.492188 152.8125 255.269531 149.875 254.882812 146.964844 L 257.855469 146.566406 C 258.261719 149.59375 258.488281 152.644531 258.542969 155.714844 Z M 254.675781 145.503906 C 254.230469 142.589844 253.617188 139.714844 252.835938 136.878906 L 255.730469 136.085938 C 256.539062 139.035156 257.175781 142.023438 257.640625 145.050781 Z M 252.433594 135.46875 C 251.597656 132.648438 250.601562 129.882812 249.445312 127.171875 L 252.203125 125.992188 C 253.40625 128.808594 254.441406 131.683594 255.3125 134.617188 Z M 248.851562 125.820312 C 247.640625 123.140625 246.277344 120.53125 244.761719 118.003906 L 247.335938 116.460938 C 248.910156 119.089844 250.328125 121.800781 251.585938 124.589844 Z M 243.996094 116.75 C 242.429688 114.25 240.726562 111.847656 238.882812 109.542969 L 241.226562 107.667969 C 243.140625 110.0625 244.914062 112.558594 246.539062 115.15625 Z M 237.953125 108.402344 C 236.066406 106.136719 234.058594 103.984375 231.925781 101.949219 L 233.996094 99.78125 C 236.210938 101.894531 238.300781 104.128906 240.257812 106.480469 Z M 230.847656 100.945312 C 228.675781 98.949219 226.394531 97.085938 224.007812 95.355469 L 225.765625 92.925781 C 228.246094 94.726562 230.617188 96.660156 232.878906 98.734375 Z M 222.804688 94.503906 C 220.382812 92.816406 217.875 91.28125 215.277344 89.890625 L 216.695312 87.246094 C 219.394531 88.691406 222 90.289062 224.515625 92.039062 Z M 213.976562 89.207031 C 211.355469 87.867188 208.664062 86.683594 205.90625 85.65625 L 206.949219 82.84375 C 209.820312 83.910156 212.617188 85.140625 215.34375 86.535156 Z M 204.519531 85.15625 C 201.738281 84.183594 198.910156 83.375 196.035156 82.730469 L 196.691406 79.804688 C 199.679688 80.472656 202.621094 81.3125 205.511719 82.324219 Z M 194.589844 82.421875 C 191.710938 81.835938 188.804688 81.417969 185.863281 81.167969 L 186.117188 78.179688 C 189.171875 78.441406 192.195312 78.875 195.1875 79.480469 Z M 184.40625 81.058594 C 182.714844 80.949219 181.019531 80.890625 179.316406 80.890625 C 176.359375 80.890625 173.417969 81.058594 170.496094 81.398438 L 170.15625 78.417969 C 173.1875 78.066406 176.242188 77.890625 179.316406 77.890625 C 181.085938 77.890625 182.847656 77.949219 184.601562 78.066406 Z M 184.40625 81.058594 " fill-opacity="1" fill-rule="nonzero"/></g></g><g clip-path="url(#7797e4dbe8)"><g clip-path="url(#d6afb7651e)"><g clip-path="url(#fad3a108d1)"><path fill="#45a4a4" d="M 323.132812 153.183594 C 323.140625 153.195312 323.140625 153.203125 323.140625 153.214844 L 323.238281 153.160156 C 323.199219 153.15625 323.164062 153.15625 323.128906 153.15625 C 323.132812 153.171875 323.136719 153.179688 323.132812 153.183594 " fill-opacity="1" fill-rule="nonzero"/></g></g></g><g clip-path="url(#25803f8faf)"><g clip-path="url(#333e118919)"><g clip-path="url(#d9f3196669)"><g clip-path="url(#0d3605295e)"><path fill="#45a4a4" d="M 355.316406 55.910156 C 354.84375 54.960938 353.753906 54.410156 352.304688 54.152344 C 347.675781 53.328125 339.34375 55.519531 335.496094 57.539062 C 335.425781 57.574219 319.402344 67.484375 318.960938 67.757812 L 263.617188 39.070312 C 262.390625 38.4375 260.347656 38.378906 259.152344 39.0625 L 254 41.996094 C 252.800781 42.675781 252.761719 44.03125 253.851562 44.882812 L 297.175781 78.910156 L 298.875 80.242188 C 298.246094 80.628906 263.503906 102.164062 256.671875 106.398438 C 256.136719 106.730469 255.46875 106.773438 254.890625 106.515625 L 238.90625 99.359375 C 237.613281 98.78125 235.613281 98.839844 234.464844 99.488281 C 233.320312 100.144531 233.308594 101.378906 234.441406 102.230469 C 234.441406 102.230469 246.101562 111.019531 248.199219 112.597656 L 83.605469 208.988281 C 83.273438 209.183594 83.152344 209.609375 83.339844 209.949219 C 83.53125 210.296875 83.964844 210.421875 84.308594 210.234375 L 251.605469 118.640625 C 252.339844 124.054688 253.542969 135.703125 253.542969 135.703125 C 253.703125 137.117188 254.75 137.738281 255.894531 137.082031 C 257.039062 136.429688 258.117188 134.734375 258.28125 133.316406 L 260.269531 115.800781 C 260.339844 115.171875 260.71875 114.617188 261.28125 114.324219 L 305.195312 91.402344 L 312.722656 147.992188 C 312.824219 148.773438 313.125 149.371094 313.617188 149.507812 C 313.816406 149.566406 314.03125 149.527344 314.210938 149.425781 C 314.210938 149.425781 318.746094 147.089844 320.160156 146.214844 C 321.527344 145.367188 322.421875 143.875 322.503906 142.496094 L 326.109375 80.347656 L 342.527344 72.023438 L 342.65625 71.957031 C 346.421875 69.984375 352.695312 64.257812 354.835938 59.820312 C 355.570312 58.296875 355.820312 56.929688 355.316406 55.910156 " fill-opacity="1" fill-rule="nonzero"/></g></g></g></g><g clip-path="url(#3f8ea38e44)"><g clip-path="url(#85baa27bbe)"><g clip-path="url(#52b5d269a9)"><path fill="#db4437" d="M 51.097656 229.75 C 47.113281 223.121094 49.261719 214.519531 55.890625 210.535156 C 58.199219 209.148438 60.742188 208.507812 63.25 208.535156 C 66.304688 208.542969 69.359375 208.550781 72.414062 208.554688 C 76.082031 208.59375 79.050781 208.625 82.71875 208.664062 C 85.953125 208.699219 86.066406 208.761719 84.570312 211.648438 C 82.890625 214.890625 81.480469 217.613281 79.796875 220.851562 C 78.394531 223.535156 76.988281 226.214844 75.582031 228.894531 C 74.433594 231.160156 72.652344 233.140625 70.3125 234.546875 C 63.683594 238.527344 55.078125 236.382812 51.097656 229.75 Z M 57.117188 226.136719 C 55.332031 223.164062 56.292969 219.308594 59.265625 217.523438 C 62.238281 215.734375 66.09375 216.699219 67.878906 219.671875 C 69.664062 222.644531 68.703125 226.5 65.730469 228.285156 C 62.757812 230.070312 58.902344 229.109375 57.117188 226.136719 Z M 57.117188 226.136719 " fill-opacity="1" fill-rule="evenodd"/></g></g></g><g fill="#7ed957" fill-opacity="1"><g transform="translate(22.537216, 311.765713)"><g><path d="M 58.625 -61.078125 L 58.625 -14.765625 C 58.625 -11.859375 57.976562 -9.210938 56.6875 -6.828125 C 55.394531 -4.453125 53.53125 -2.550781 51.09375 -1.125 C 48.65625 0.289062 45.710938 1 42.265625 1 C 39.660156 1 37.425781 0.460938 35.5625 -0.609375 C 33.695312 -1.691406 32.21875 -3.140625 31.125 -4.953125 C 29.976562 -3.140625 28.457031 -1.691406 26.5625 -0.609375 C 24.664062 0.460938 22.414062 1 19.8125 1 C 16.207031 1 13.140625 0.289062 10.609375 -1.125 C 8.078125 -2.550781 6.148438 -4.453125 4.828125 -6.828125 C 3.515625 -9.210938 2.859375 -11.859375 2.859375 -14.765625 L 2.859375 -61.125 C 2.859375 -61.601562 2.972656 -62.015625 3.203125 -62.359375 C 3.429688 -62.710938 3.710938 -62.890625 4.046875 -62.890625 L 13.625 -62.890625 C 14.144531 -62.890625 14.503906 -62.710938 14.703125 -62.359375 C 14.898438 -62.015625 15 -61.601562 15 -61.125 L 15 -15.453125 C 15 -14.515625 15.1875 -13.617188 15.5625 -12.765625 C 15.9375 -11.921875 16.476562 -11.238281 17.1875 -10.71875 C 17.90625 -10.207031 18.765625 -9.953125 19.765625 -9.953125 C 21.367188 -9.953125 22.585938 -10.507812 23.421875 -11.625 C 24.253906 -12.75 24.671875 -14.023438 24.671875 -15.453125 L 24.671875 -61.125 C 24.671875 -61.601562 24.789062 -62.015625 25.03125 -62.359375 C 25.28125 -62.710938 25.570312 -62.890625 25.90625 -62.890625 L 35.4375 -62.890625 C 35.988281 -62.890625 36.351562 -62.710938 36.53125 -62.359375 C 36.71875 -62.015625 36.8125 -61.601562 36.8125 -61.125 L 36.8125 -15.453125 C 36.8125 -14.023438 37.226562 -12.75 38.0625 -11.625 C 38.894531 -10.507812 40.097656 -9.953125 41.671875 -9.953125 C 43.273438 -9.953125 44.484375 -10.507812 45.296875 -11.625 C 46.117188 -12.75 46.53125 -14.023438 46.53125 -15.453125 L 46.53125 -61.078125 C 46.53125 -61.554688 46.648438 -61.976562 46.890625 -62.34375 C 47.140625 -62.707031 47.488281 -62.890625 47.9375 -62.890625 L 57.171875 -62.890625 C 57.679688 -62.890625 58.050781 -62.695312 58.28125 -62.3125 C 58.507812 -61.9375 58.625 -61.523438 58.625 -61.078125 Z M 58.625 -61.078125 "/></g></g></g><g fill="#7ed957" fill-opacity="1"><g transform="translate(84.008316, 311.765713)"><g><path d="M 15 -47.4375 L 15 -25.578125 L 24.671875 -25.578125 L 24.671875 -47.4375 C 24.671875 -48.863281 24.242188 -50.128906 23.390625 -51.234375 C 22.546875 -52.335938 21.367188 -52.890625 19.859375 -52.890625 C 18.316406 -52.890625 17.117188 -52.335938 16.265625 -51.234375 C 15.421875 -50.128906 15 -48.863281 15 -47.4375 Z M 36.8125 -48.125 L 36.8125 -1.8125 C 36.8125 -1.363281 36.695312 -0.945312 36.46875 -0.5625 C 36.238281 -0.1875 35.867188 0 35.359375 0 L 26.125 0 C 25.675781 0 25.320312 -0.179688 25.0625 -0.546875 C 24.800781 -0.910156 24.671875 -1.332031 24.671875 -1.8125 L 24.671875 -15 L 15 -15 L 15 -1.765625 C 15 -1.285156 14.90625 -0.867188 14.71875 -0.515625 C 14.539062 -0.171875 14.175781 0 13.625 0 L 4.046875 0 C 3.710938 0 3.429688 -0.171875 3.203125 -0.515625 C 2.972656 -0.867188 2.859375 -1.285156 2.859375 -1.765625 L 2.859375 -48.125 C 2.859375 -50.300781 3.3125 -52.34375 4.21875 -54.25 C 5.132812 -56.164062 6.367188 -57.84375 7.921875 -59.28125 C 9.484375 -60.71875 11.285156 -61.84375 13.328125 -62.65625 C 15.378906 -63.476562 17.539062 -63.890625 19.8125 -63.890625 C 22.082031 -63.890625 24.238281 -63.476562 26.28125 -62.65625 C 28.332031 -61.84375 30.144531 -60.71875 31.71875 -59.28125 C 33.289062 -57.84375 34.53125 -56.164062 35.4375 -54.25 C 36.351562 -52.34375 36.8125 -50.300781 36.8125 -48.125 Z M 36.8125 -48.125 "/></g></g></g><g fill="#7ed957" fill-opacity="1"><g transform="translate(123.671487, 311.765713)"><g><path d="M 35.359375 0 L 26.125 0 C 25.675781 0 25.320312 -0.179688 25.0625 -0.546875 C 24.800781 -0.910156 24.671875 -1.332031 24.671875 -1.8125 L 24.671875 -47.4375 C 24.671875 -48.863281 24.242188 -50.128906 23.390625 -51.234375 C 22.546875 -52.335938 21.367188 -52.890625 19.859375 -52.890625 C 18.316406 -52.890625 17.117188 -52.335938 16.265625 -51.234375 C 15.421875 -50.128906 15 -48.863281 15 -47.4375 L 15 -1.765625 C 15 -1.285156 14.898438 -0.867188 14.703125 -0.515625 C 14.503906 -0.171875 14.144531 0 13.625 0 L 4.046875 0 C 3.710938 0 3.429688 -0.171875 3.203125 -0.515625 C 2.972656 -0.867188 2.859375 -1.285156 2.859375 -1.765625 L 2.859375 -48.125 C 2.859375 -50.300781 3.3125 -52.34375 4.21875 -54.25 C 5.132812 -56.164062 6.367188 -57.84375 7.921875 -59.28125 C 9.484375 -60.71875 11.285156 -61.84375 13.328125 -62.65625 C 15.378906 -63.476562 17.539062 -63.890625 19.8125 -63.890625 C 22.082031 -63.890625 24.238281 -63.476562 26.28125 -62.65625 C 28.332031 -61.84375 30.144531 -60.71875 31.71875 -59.28125 C 33.289062 -57.84375 34.53125 -56.164062 35.4375 -54.25 C 36.351562 -52.34375 36.8125 -50.300781 36.8125 -48.125 L 36.8125 -1.8125 C 36.8125 -1.363281 36.695312 -0.945312 36.46875 -0.5625 C 36.238281 -0.1875 35.867188 0 35.359375 0 Z M 35.359375 0 "/></g></g></g><g fill="#7ed957" fill-opacity="1"><g transform="translate(163.334657, 311.765713)"><g><path d="M 15.359375 -51.84375 L 15.359375 -10.953125 L 20.078125 -10.953125 C 21.597656 -11.015625 22.8125 -11.566406 23.71875 -12.609375 C 24.625 -13.648438 25.078125 -14.945312 25.078125 -16.5 L 25.078125 -46.265625 C 25.078125 -48.171875 24.59375 -49.578125 23.625 -50.484375 C 22.65625 -51.390625 21.398438 -51.84375 19.859375 -51.84375 Z M 3.265625 -1.734375 L 3.265625 -61.125 C 3.265625 -62.300781 3.78125 -62.890625 4.8125 -62.890625 L 20.578125 -62.890625 C 23.734375 -62.859375 26.5625 -62.222656 29.0625 -60.984375 C 31.5625 -59.742188 33.535156 -57.929688 34.984375 -55.546875 C 36.441406 -53.171875 37.171875 -50.242188 37.171875 -46.765625 L 37.171875 -16.125 C 37.171875 -12.644531 36.441406 -9.710938 34.984375 -7.328125 C 33.535156 -4.953125 31.5625 -3.144531 29.0625 -1.90625 C 26.5625 -0.664062 23.765625 -0.03125 20.671875 0 L 4.8125 0 C 3.78125 0 3.265625 -0.578125 3.265625 -1.734375 Z M 3.265625 -1.734375 "/></g></g></g><g fill="#7ed957" fill-opacity="1"><g transform="translate(202.770662, 311.765713)"><g><path d="M 15.359375 -10.953125 L 32.21875 -10.953125 C 32.582031 -10.953125 32.890625 -10.820312 33.140625 -10.5625 C 33.398438 -10.300781 33.53125 -9.914062 33.53125 -9.40625 L 33.53125 -1.59375 C 33.53125 -1.039062 33.398438 -0.632812 33.140625 -0.375 C 32.890625 -0.125 32.582031 0 32.21875 0 L 4.8125 0 C 3.78125 0 3.265625 -0.578125 3.265625 -1.734375 L 3.265625 -61.125 C 3.265625 -62.300781 3.78125 -62.890625 4.8125 -62.890625 L 31.984375 -62.890625 C 32.835938 -62.890625 33.265625 -62.328125 33.265625 -61.203125 L 33.265625 -53.484375 C 33.265625 -52.390625 32.835938 -51.84375 31.984375 -51.84375 L 15.359375 -51.84375 L 15.359375 -37.265625 L 28.625 -37.265625 C 29.019531 -37.265625 29.359375 -37.140625 29.640625 -36.890625 C 29.929688 -36.648438 30.078125 -36.242188 30.078125 -35.671875 L 30.078125 -27.90625 C 30.078125 -27.351562 29.941406 -26.957031 29.671875 -26.71875 C 29.398438 -26.476562 29.050781 -26.359375 28.625 -26.359375 L 15.359375 -26.359375 Z M 15.359375 -10.953125 "/></g></g></g><g fill="#7ed957" fill-opacity="1"><g transform="translate(237.345317, 311.765713)"><g><path d="M 25.125 -38.9375 L 25.125 -46.484375 C 25.125 -48.117188 24.644531 -49.421875 23.6875 -50.390625 C 22.738281 -51.359375 21.476562 -51.84375 19.90625 -51.84375 L 15.359375 -51.84375 L 15.359375 -33.8125 L 19.578125 -33.8125 C 21.398438 -33.8125 22.78125 -34.28125 23.71875 -35.21875 C 24.65625 -36.15625 25.125 -37.394531 25.125 -38.9375 Z M 35.21875 -0.046875 L 26.859375 -0.046875 C 26.335938 -0.046875 25.859375 -0.21875 25.421875 -0.5625 C 24.984375 -0.914062 24.765625 -1.425781 24.765625 -2.09375 L 24.765625 -11.59375 C 24.765625 -15.976562 23.976562 -19.160156 22.40625 -21.140625 C 20.832031 -23.128906 18.484375 -24.234375 15.359375 -24.453125 L 15.359375 -1.6875 C 15.359375 -0.5625 14.859375 0 13.859375 0 L 4.765625 0 C 3.765625 0 3.265625 -0.5625 3.265625 -1.6875 L 3.265625 -61.125 C 3.265625 -62.300781 3.78125 -62.890625 4.8125 -62.890625 L 20.859375 -62.890625 C 23.191406 -62.890625 25.359375 -62.460938 27.359375 -61.609375 C 29.359375 -60.765625 31.097656 -59.582031 32.578125 -58.0625 C 34.066406 -56.550781 35.21875 -54.8125 36.03125 -52.84375 C 36.851562 -50.875 37.265625 -48.753906 37.265625 -46.484375 L 37.265625 -39.984375 C 37.265625 -37.285156 36.640625 -34.988281 35.390625 -33.09375 C 34.148438 -31.207031 32.609375 -29.644531 30.765625 -28.40625 C 32.828125 -26.675781 34.359375 -24.332031 35.359375 -21.375 C 36.359375 -18.425781 36.859375 -14.679688 36.859375 -10.140625 L 36.859375 -1.953125 C 36.859375 -1.554688 36.734375 -1.140625 36.484375 -0.703125 C 36.242188 -0.265625 35.820312 -0.046875 35.21875 -0.046875 Z M 35.21875 -0.046875 "/></g></g></g><g fill="#7ed957" fill-opacity="1"><g transform="translate(277.053921, 311.765713)"><g><path d="M 25.5 -34.671875 L 25.5 -28.3125 C 25.5 -27.945312 25.351562 -27.640625 25.0625 -27.390625 C 24.769531 -27.148438 24.503906 -27.03125 24.265625 -27.03125 L 3.40625 -27.03125 C 3.257812 -27.03125 3.03125 -27.132812 2.71875 -27.34375 C 2.414062 -27.5625 2.265625 -27.898438 2.265625 -28.359375 L 2.265625 -34.625 C 2.265625 -35.050781 2.398438 -35.375 2.671875 -35.59375 C 2.953125 -35.820312 3.210938 -35.9375 3.453125 -35.9375 L 24.3125 -35.9375 C 24.613281 -35.9375 24.882812 -35.820312 25.125 -35.59375 C 25.375 -35.375 25.5 -35.066406 25.5 -34.671875 Z M 25.5 -34.671875 "/></g></g></g><g fill="#7ed957" fill-opacity="1"><g transform="translate(304.859031, 311.765713)"><g><path d="M 15 -47.4375 L 15 -25.578125 L 24.671875 -25.578125 L 24.671875 -47.4375 C 24.671875 -48.863281 24.242188 -50.128906 23.390625 -51.234375 C 22.546875 -52.335938 21.367188 -52.890625 19.859375 -52.890625 C 18.316406 -52.890625 17.117188 -52.335938 16.265625 -51.234375 C 15.421875 -50.128906 15 -48.863281 15 -47.4375 Z M 36.8125 -48.125 L 36.8125 -1.8125 C 36.8125 -1.363281 36.695312 -0.945312 36.46875 -0.5625 C 36.238281 -0.1875 35.867188 0 35.359375 0 L 26.125 0 C 25.675781 0 25.320312 -0.179688 25.0625 -0.546875 C 24.800781 -0.910156 24.671875 -1.332031 24.671875 -1.8125 L 24.671875 -15 L 15 -15 L 15 -1.765625 C 15 -1.285156 14.90625 -0.867188 14.71875 -0.515625 C 14.539062 -0.171875 14.175781 0 13.625 0 L 4.046875 0 C 3.710938 0 3.429688 -0.171875 3.203125 -0.515625 C 2.972656 -0.867188 2.859375 -1.285156 2.859375 -1.765625 L 2.859375 -48.125 C 2.859375 -50.300781 3.3125 -52.34375 4.21875 -54.25 C 5.132812 -56.164062 6.367188 -57.84375 7.921875 -59.28125 C 9.484375 -60.71875 11.285156 -61.84375 13.328125 -62.65625 C 15.378906 -63.476562 17.539062 -63.890625 19.8125 -63.890625 C 22.082031 -63.890625 24.238281 -63.476562 26.28125 -62.65625 C 28.332031 -61.84375 30.144531 -60.71875 31.71875 -59.28125 C 33.289062 -57.84375 34.53125 -56.164062 35.4375 -54.25 C 36.351562 -52.34375 36.8125 -50.300781 36.8125 -48.125 Z M 36.8125 -48.125 "/></g></g></g><g fill="#7ed957" fill-opacity="1"><g transform="translate(344.522201, 311.765713)"><g><path d="M 15.359375 -61.125 L 15.359375 -1.734375 C 15.359375 -0.578125 14.859375 0 13.859375 0 L 4.765625 0 C 3.765625 0 3.265625 -0.578125 3.265625 -1.734375 L 3.265625 -61.125 C 3.265625 -62.300781 3.765625 -62.890625 4.765625 -62.890625 L 13.859375 -62.890625 C 14.859375 -62.890625 15.359375 -62.300781 15.359375 -61.125 Z M 15.359375 -61.125 "/></g></g></g><g clip-path="url(#feb5673de9)"><path fill="#0095cf" d="M 241.449219 157.125 C 241.449219 157.273438 241.449219 157.433594 241.4375 157.582031 C 241.417969 160.644531 241.179688 163.652344 240.71875 166.59375 C 238.558594 180.808594 231.582031 193.425781 221.503906 202.734375 L 221.496094 202.734375 C 210.410156 212.988281 195.589844 219.257812 179.316406 219.257812 C 171.351562 219.257812 163.734375 217.765625 156.75 215.023438 C 155.882812 214.695312 155.023438 214.335938 154.175781 213.957031 C 142.355469 208.722656 132.488281 199.914062 125.921875 188.890625 C 122.621094 183.347656 120.148438 177.246094 118.695312 170.769531 C 117.707031 166.375 117.191406 161.808594 117.191406 157.125 C 117.191406 155.480469 117.25 153.855469 117.390625 152.253906 C 118.4375 138.625 123.890625 126.234375 132.320312 116.5 C 135.566406 112.75 139.257812 109.390625 143.304688 106.511719 L 143.316406 106.503906 C 144.410156 105.726562 145.535156 104.96875 146.691406 104.261719 C 153.75 99.894531 161.742188 96.894531 170.304688 95.648438 C 173.242188 95.21875 176.253906 95 179.316406 95 C 186.609375 95 193.625 96.265625 200.125 98.578125 C 210.632812 102.308594 219.820312 108.785156 226.855469 117.136719 C 235.96875 127.941406 241.449219 141.894531 241.449219 157.125 " fill-opacity="1" fill-rule="nonzero"/></g><path fill="#7ed957" d="M 187.617188 205.75 C 187.617188 205.75 184.230469 201.03125 184.609375 192.941406 C 184.984375 184.851562 184.230469 183.503906 178.972656 181.816406 C 173.714844 180.132812 168.453125 177.097656 167.699219 173.054688 C 166.949219 169.007812 171.457031 159.570312 171.457031 159.570312 C 171.457031 159.570312 177.472656 155.527344 182.730469 156.199219 C 187.988281 156.875 197.007812 156.875 201.140625 160.582031 C 205.273438 164.289062 207.902344 172.714844 209.78125 173.054688 C 211.660156 173.390625 207.152344 187.882812 206.398438 190.246094 C 205.648438 192.601562 203.394531 202.042969 201.515625 205.75 C 199.636719 209.457031 197.757812 212.828125 196.253906 212.828125 C 194.753906 212.828125 187.988281 213.503906 187.617188 205.75 " fill-opacity="1" fill-rule="nonzero"/><path fill="#7ed957" d="M 158.421875 204.976562 C 158.09375 206.570312 157.507812 210.808594 156.75 215.023438 C 155.882812 214.695312 155.023438 214.335938 154.175781 213.957031 C 142.355469 208.722656 132.488281 199.914062 125.921875 188.890625 C 122.621094 183.347656 120.148438 177.246094 118.695312 170.769531 C 120.988281 169.550781 123.859375 168.457031 126.679688 168.507812 C 132.859375 168.628906 133.636719 170.148438 138.898438 173.921875 C 144.148438 177.699219 148.265625 187.128906 150.488281 187.289062 C 152.710938 187.4375 158.992188 202.144531 158.421875 204.976562 " fill-opacity="1" fill-rule="nonzero"/><g clip-path="url(#0c3cfd160f)"><path fill="#7ed957" d="M 241.449219 157.125 C 241.449219 157.273438 241.449219 157.433594 241.4375 157.582031 C 241.417969 160.644531 241.179688 163.652344 240.71875 166.59375 C 237.929688 162.496094 234.917969 156.347656 233.386719 155.273438 C 231.023438 153.605469 222.363281 152.609375 225.511719 156.933594 C 228.660156 161.273438 229.996094 161.273438 229.996094 161.273438 C 229.996094 161.273438 223.9375 173.472656 219.609375 172.289062 C 215.277344 171.109375 206.613281 155.273438 206.613281 155.273438 C 201.5 151.246094 211.339844 148.277344 211.339844 148.277344 C 211.339844 148.277344 214.488281 145.523438 209.761719 142.371094 C 205.039062 139.226562 201.5 145.914062 198.351562 145.125 C 195.203125 144.335938 194.414062 147.484375 193.425781 150.636719 C 192.441406 153.785156 189.570312 155.671875 188.902344 150.636719 C 188.222656 145.601562 181.027344 148.675781 178.667969 148.675781 C 176.304688 148.675781 171.582031 156.933594 167.242188 156.933594 C 162.917969 156.933594 162.917969 151.035156 163.707031 148.277344 C 164.492188 145.523438 171.183594 142.761719 177.480469 142.371094 C 183.78125 141.976562 177.878906 136.464844 179.84375 135.394531 C 181.816406 134.320312 187.71875 136.074219 193.425781 138.4375 C 199.128906 140.800781 205.039062 135.285156 210.160156 135.394531 C 215.277344 135.507812 199.140625 131.351562 204.25 127.414062 C 209.375 123.476562 198.351562 119.929688 198.742188 115.601562 C 199.140625 111.265625 195.589844 106.152344 195.589844 101.429688 C 195.589844 99.925781 197.265625 98.945312 200.125 98.578125 C 210.632812 102.308594 219.820312 108.785156 226.855469 117.136719 C 235.96875 127.941406 241.449219 141.894531 241.449219 157.125 " fill-opacity="1" fill-rule="nonzero"/></g><path fill="#7ed957" d="M 153.496094 136.121094 C 153.496094 136.121094 155.777344 138.820312 157.539062 136.121094 C 159.296875 133.425781 159.546875 131.273438 158.445312 131.082031 C 157.339844 130.882812 150.789062 135 153.496094 136.121094 " fill-opacity="1" fill-rule="nonzero"/><path fill="#7ed957" d="M 140.199219 136.121094 C 140.199219 136.121094 144.894531 134.925781 145.933594 132.578125 C 146.980469 130.230469 152.976562 131.273438 154.539062 128.925781 C 156.105469 126.582031 160.152344 125.742188 161.128906 123.554688 C 162.097656 121.367188 163.160156 117.980469 159.109375 117.714844 C 155.0625 117.457031 151.070312 115.632812 151.109375 117.714844 C 151.148438 119.804688 150.109375 119.28125 146.457031 120.585938 C 142.808594 121.886719 138.898438 120.007812 138.898438 123.554688 C 138.898438 127.105469 139.941406 131.070312 139.941406 131.070312 C 139.941406 131.070312 137.855469 133.933594 140.199219 136.121094 " fill-opacity="1" fill-rule="nonzero"/><g clip-path="url(#48286bedd8)"><path fill="#7ed957" d="M 170.304688 95.648438 C 170.304688 95.648438 163.316406 104.976562 162.019531 105.226562 C 160.71875 105.476562 156.71875 108.214844 155.980469 110.960938 C 155.234375 113.703125 150 115.441406 146.015625 113.703125 C 142.027344 111.953125 141.109375 110.03125 143.304688 106.511719 L 143.316406 106.503906 C 144.410156 105.726562 145.535156 104.96875 146.691406 104.261719 C 153.75 99.894531 161.742188 96.894531 170.304688 95.648438 " fill-opacity="1" fill-rule="nonzero"/></g><g clip-path="url(#a6e4532b91)"><path fill="#7ed957" d="M 131.144531 132.308594 C 130.484375 134.300781 130.644531 136.625 128.492188 137.320312 C 126.328125 138.019531 127.15625 140.609375 125.664062 143.929688 C 124.316406 146.921875 118.546875 151.382812 117.390625 152.253906 C 118.4375 138.625 123.890625 126.234375 132.320312 116.5 C 133.199219 119.160156 132.859375 123.554688 133.636719 124.992188 C 134.800781 127.152344 131.8125 130.3125 131.144531 132.308594 " fill-opacity="1" fill-rule="nonzero"/></g></svg>